
<svg width="204" height="46" viewBox="0 0 204 46" fill="none" xmlns="http://www.w3.org/2000/svg">
<path d="M151.642 6.00307C152.201 6.01352 152.435 5.80895 152.534 5.26991C152.779 3.94991 153.034 2.62992 153.359 1.32934C153.538 0.615586 153.301 0.469252 152.643 0.473731C149.485 0.496129 146.328 0.479704 143.169 0.485677C141.819 0.488663 141.216 0.984407 140.94 2.29843C140.461 4.58453 139.952 6.86764 139.53 9.16419C139.382 9.96902 139.046 10.193 138.248 10.19C130.639 10.1602 123.031 10.1706 115.422 10.1736C112.989 10.1736 111.65 11.837 112.185 14.2023C113.598 20.4573 115.017 26.7108 116.439 32.9644C116.936 35.1475 118.284 36.0568 120.523 35.7641C126.879 34.9339 133.237 34.1127 139.595 33.2869C140.546 33.163 141.495 33.0331 142.445 32.9062C142.436 32.8449 142.426 32.7822 142.417 32.721C140.271 32.4716 138.127 32.2178 135.981 31.9714C131.439 31.4488 126.899 30.9157 122.354 30.42C121.672 30.3453 121.393 30.0735 121.248 29.4031C120.329 25.1773 119.363 20.9605 118.413 16.7407C118.179 15.6999 118.184 15.688 119.238 15.688C125.205 15.6865 131.174 15.688 137.141 15.688C137.29 15.688 137.439 15.6955 137.588 15.694C137.981 15.6895 138.124 15.8627 138.035 16.2554C137.912 16.7885 137.821 17.3275 137.709 17.8636C136.916 21.6847 136.129 25.5058 135.314 29.3225C135.183 29.9362 135.325 30.1587 135.971 30.2079C137.259 30.3065 138.546 30.4468 139.819 30.6574C140.515 30.7724 140.712 30.5305 140.843 29.8929C142.408 22.2462 144.011 14.6069 145.571 6.96022C145.725 6.21063 146.01 5.94036 146.794 5.97171C148.407 6.03592 150.026 5.97022 151.642 6.00158V6.00307Z" fill="#236924"/>
<path d="M22.6048 5.78964C18.2552 5.81951 13.9055 5.78666 9.5574 5.85534C6.67903 5.90014 4.50496 7.64719 3.86781 10.441C3.20977 13.3244 2.83375 16.263 2.69946 19.2195C2.60097 21.3847 3.738 22.7838 5.84194 23.3229C6.54325 23.502 7.25501 23.5931 7.9787 23.5946C9.86777 23.5991 11.7568 23.5901 13.6459 23.6081C14.968 23.62 15.535 24.2038 15.4425 25.4999C15.3574 26.6885 15.1694 27.8682 14.8799 29.0269C14.665 29.8885 14.1174 30.4156 13.246 30.5515C12.7581 30.6276 12.2567 30.6366 11.7613 30.6381C8.30698 30.6455 4.85114 30.6485 1.39681 30.6351C0.899917 30.6336 0.616408 30.7411 0.556722 31.31C0.419444 32.6419 0.258291 33.9754 0.0314832 35.2939C-0.0729677 35.8986 0.103107 36.0136 0.659681 36.0076C2.9964 35.9837 5.33311 35.9972 7.66833 35.9972V35.9867C9.97968 35.9867 12.2925 36.0136 14.6024 35.9808C17.8866 35.9345 20.0204 34.174 20.7262 30.9755C20.8605 30.3708 20.9739 29.7586 21.0694 29.1464C21.435 26.7901 21.8751 24.4368 21.7602 22.0402C21.6722 20.1856 20.568 18.9567 18.7565 18.5416C17.906 18.346 17.045 18.2519 16.1706 18.2534C14.4054 18.2549 12.6402 18.2669 10.8765 18.2325C9.50518 18.2056 8.92771 17.5277 9.07842 16.1794C9.16944 15.3656 9.27688 14.5518 9.40968 13.7425C9.74392 11.7057 10.1946 11.3011 12.2642 11.1398C12.5611 11.1174 12.8595 11.1159 13.158 11.1144C16.0408 11.1129 18.9251 11.1025 21.808 11.1234C22.3496 11.1278 22.5929 11.0054 22.6496 10.4051C22.7749 9.0956 22.9778 7.79352 23.1897 6.49443C23.2748 5.97629 23.1614 5.78367 22.6063 5.78666L22.6048 5.78964Z" fill="#4CBF42"/>
<path d="M43.0534 10.326C40.9689 9.81834 38.8604 9.86762 36.7729 10.3141C35.4046 10.6068 34.4183 11.4385 33.799 12.6972C33.7796 12.8048 33.6886 12.9242 33.617 12.863C33.4514 12.7256 33.5812 12.5599 33.6513 12.4105C34.0691 9.38681 34.4765 6.36008 34.9167 3.33932C34.9868 2.8615 34.8749 2.72711 34.4034 2.73458C32.862 2.75548 31.3206 2.76444 29.7807 2.7301C29.245 2.71815 29.0689 2.88091 28.9958 3.41996C28.3676 8.0698 27.7006 12.7152 27.0515 17.362C26.2099 23.3856 25.3788 29.4122 24.5238 35.4343C24.4596 35.8822 24.5566 36.0017 24.9923 35.9972C26.6083 35.9808 28.2244 35.9838 29.8389 35.9957C30.191 35.9987 30.3566 35.9166 30.4089 35.5149C30.7297 33.078 31.0893 30.6456 31.428 28.2116C31.9309 24.5966 32.4158 20.9786 32.9321 17.365C33.1261 16.0077 33.811 15.3731 35.1823 15.1894C36.097 15.0655 37.0221 15.0849 37.9368 15.1521C39.42 15.2611 39.9512 15.9405 39.7677 17.4277C39.6155 18.6596 39.4245 19.8855 39.2544 21.1144C38.5933 25.8852 37.9368 30.6575 37.2698 35.4283C37.2116 35.8479 37.3295 36.0077 37.7712 36.0002C38.9395 35.9778 40.1079 35.9927 41.2762 35.9927C43.1504 35.9927 43.125 35.9898 43.3742 34.1591C43.9412 30.002 44.5649 25.8524 45.1066 21.6923C45.4408 19.1345 45.978 16.596 45.9303 13.9963C45.8945 12.088 44.9126 10.7815 43.0549 10.329L43.0534 10.326Z" fill="#4CBF42"/>
<path d="M166.046 10.1897C162.632 9.82981 159.197 10.012 155.771 10.121C155.375 10.1329 154.975 10.1777 154.587 10.2584C151.975 10.7989 150.717 12.6087 150.205 15.0545C149.605 17.926 149.268 20.8422 148.884 23.748C148.546 26.3073 148.026 28.8517 147.965 31.441C147.903 34.1243 149.12 35.5129 151.764 35.8623C154.016 36.161 156.282 35.9146 158.107 35.9967C160.48 35.9967 162.418 35.9803 164.357 36.0072C164.916 36.0147 165.168 35.8131 165.232 35.2636C165.362 34.1541 165.532 33.0477 165.677 31.9397C165.813 30.89 165.807 30.89 164.771 30.8825C161.839 30.8646 158.906 30.8721 155.975 30.8153C154.522 30.7869 153.971 30.0986 154.119 28.6561C154.195 27.9155 154.355 27.1809 154.398 26.4387C154.446 25.6339 154.769 25.3636 155.605 25.383C158.089 25.4398 160.575 25.4234 163.06 25.383C165.805 25.3367 167.642 23.9406 168.305 21.2812C168.894 18.9175 169.261 16.5029 169.316 14.0601C169.367 11.8053 168.276 10.4256 166.041 10.1912L166.046 10.1897ZM163.188 16.7344C163.169 17.5318 163.031 18.3142 162.855 19.0877C162.627 20.0881 162.06 20.5674 161.022 20.6078C160.18 20.6406 159.335 20.6137 158.492 20.6137V20.6182C157.624 20.6182 156.755 20.6063 155.889 20.6227C155.393 20.6317 155.219 20.439 155.314 19.9463C155.513 18.9249 155.66 17.8916 155.877 16.8748C156.105 15.7996 156.711 15.3009 157.798 15.2516C159.135 15.1919 160.474 15.1307 161.814 15.2203C162.855 15.2905 163.215 15.6772 163.19 16.7329L163.188 16.7344Z" fill="#236924"/>
<path d="M105.212 10.1913C101.471 9.86427 97.7092 9.86875 93.9698 10.2331C92.0599 10.4197 90.6871 11.562 89.8977 13.3405C89.6247 13.9557 89.4411 14.6022 89.3098 15.2607C88.7309 18.1605 88.4041 21.0991 87.9952 24.0258C87.6505 26.4851 87.1984 28.9355 87.1104 31.4217C87.0164 34.0781 88.2713 35.516 90.896 35.861C93.1491 36.1566 95.4157 35.9192 97.26 35.9983C99.6654 35.9983 101.654 35.9864 103.643 36.0073C104.102 36.0118 104.315 35.8744 104.369 35.4041C104.518 34.096 104.664 32.7865 104.885 31.4904C104.982 30.9259 104.77 30.8662 104.316 30.8692C102.577 30.8826 100.835 30.8871 99.0954 30.8692C97.6301 30.8557 96.1603 30.9648 94.698 30.7871C93.6699 30.6616 93.1939 30.0838 93.279 29.0609C93.361 28.0709 93.5371 27.0869 93.5863 26.0969C93.6177 25.4787 93.8922 25.3891 94.4249 25.3921C97.0347 25.41 99.646 25.4205 102.257 25.3787C105.088 25.3339 106.911 23.8362 107.502 21.1186C107.999 18.834 108.345 16.5255 108.487 14.1901C108.624 11.9144 107.484 10.3869 105.213 10.1883L105.212 10.1913ZM102.342 16.7793C102.287 17.5483 102.178 18.3083 102.017 19.0624C101.802 20.0703 101.322 20.5138 100.277 20.5631C99.3849 20.6049 98.4896 20.572 97.5958 20.572C97.5958 20.587 97.5958 20.6034 97.5958 20.6183C96.7258 20.6183 95.8559 20.6049 94.986 20.6243C94.5473 20.6348 94.3458 20.5437 94.4518 20.0345C94.6622 19.0146 94.7935 17.9783 95.0009 16.957C95.2352 15.8013 95.8499 15.301 97.0093 15.2428C98.3493 15.1741 99.6908 15.1099 101.032 15.2114C102.039 15.2876 102.417 15.7565 102.344 16.7793H102.342Z" fill="#4CBF42"/>
<path d="M187.697 10.1763C185.423 9.83732 183.128 10.1255 181.361 10.0299C178.905 10.0299 176.965 10.0494 175.027 10.018C174.442 10.009 174.166 10.1972 174.099 10.787C173.966 11.9472 173.805 13.1045 173.629 14.2587C173.53 14.9038 173.738 15.1427 174.417 15.1352C177.077 15.1053 179.736 15.1188 182.397 15.1277C182.843 15.1277 183.293 15.1487 183.732 15.2203C184.842 15.4025 185.305 15.9475 185.233 17.06C185.174 17.9753 184.997 18.8832 184.918 19.7985C184.862 20.4525 184.563 20.6541 183.911 20.6451C181.425 20.6123 178.939 20.6093 176.453 20.6451C173.509 20.6884 171.625 22.1742 170.926 25.0247C170.376 27.275 170.095 29.5745 170.043 31.889C169.989 34.2915 170.998 35.613 173.374 35.831C177.061 36.1685 180.775 36.1804 184.462 35.7892C186.266 35.5981 187.655 34.5917 188.473 32.9163C188.868 32.107 189.132 31.2499 189.268 30.3614C189.669 27.7334 190.09 25.1068 190.43 22.4698C190.771 19.8343 191.285 17.2138 191.36 14.5499C191.433 11.9308 190.284 10.563 187.695 10.1778L187.697 10.1763ZM183.948 25.8684C183.241 27.7603 182.529 29.6447 180.936 31.0184C179.773 32.0204 178.433 32.3787 176.92 32.2011C176.313 32.1294 176.237 31.8621 176.477 31.3544C177.04 30.1628 177.896 29.2057 178.833 28.3053C179.042 28.1037 179.305 27.9424 179.453 27.5214C178.456 27.9096 177.765 28.5084 177.138 29.1863C176.538 29.8358 175.961 30.5078 175.38 31.1618C175.079 30.9602 175.185 30.7497 175.207 30.5675C175.722 26.3163 179.451 23.9406 183.519 25.2696C183.808 25.3637 184.113 25.4309 183.948 25.8684Z" fill="#236924"/>
<path d="M65.2341 10.1794C62.9347 9.83747 60.6159 10.1331 58.8522 10.0301C56.32 10.0301 54.3309 10.0435 52.3419 10.0196C51.8733 10.0137 51.6853 10.1645 51.6331 10.6289C51.4854 11.9115 51.3198 13.1942 51.1213 14.4694C51.0377 15.0055 51.1959 15.1398 51.7301 15.1354C54.5145 15.11 57.2988 15.1174 60.0832 15.1294C60.5532 15.1309 61.0292 15.1697 61.4903 15.2608C62.3408 15.4295 62.8034 15.976 62.7526 16.8406C62.693 17.856 62.5214 18.8624 62.4259 19.8763C62.3736 20.4347 62.1752 20.6587 61.5515 20.6498C59.0417 20.6095 56.5289 20.6154 54.0191 20.6423C51.0377 20.6752 49.1367 22.1415 48.4369 25.0338C47.8863 27.3065 47.5894 29.6284 47.5476 31.9683C47.5058 34.2872 48.5563 35.5923 50.8796 35.8387C54.2444 36.197 57.639 36.1268 61.0068 35.8984C64.3955 35.6684 65.9101 34.2111 66.6546 30.8782C67.2933 28.0158 67.5604 25.0891 67.9767 22.1908C68.3438 19.6344 68.7839 17.0825 68.872 14.4963C68.96 11.9429 67.7752 10.5587 65.2341 10.1794ZM61.5022 25.7774C60.7591 27.7022 60.0623 29.6523 58.415 31.0455C57.2018 32.0713 55.8141 32.4162 54.2489 32.1743C53.7714 32.1012 53.746 31.916 53.9086 31.5323C54.322 30.5542 54.9561 29.7344 55.6739 28.9714C55.9962 28.628 56.3274 28.2935 56.6542 27.956C56.5886 27.8933 56.5214 27.8291 56.4558 27.7664C55.356 28.2681 54.6383 29.2014 53.8624 30.0674C53.5237 30.4452 53.1849 30.8245 52.7985 31.2575C52.4762 28.9774 54.1832 26.2463 56.3946 25.3608C57.9927 24.7217 59.5997 24.8442 61.2083 25.319C61.4321 25.3847 61.6291 25.4519 61.5037 25.7759L61.5022 25.7774Z" fill="#4CBF42"/>
<path d="M203.439 30.8859C202.769 30.883 202.096 30.88 201.429 30.8322C199.944 30.7232 199.513 30.2588 199.692 28.7895C200.041 25.93 200.446 23.078 200.841 20.2245C201.609 14.6891 202.376 9.15532 203.181 3.62449C203.29 2.87788 203.049 2.7211 202.376 2.742C201.135 2.77933 199.892 2.75246 198.65 2.75246C197.346 2.75246 197.37 2.75693 197.197 4.02317C196.384 9.95269 195.548 15.8792 194.735 21.8087C194.307 24.934 193.798 28.0474 193.522 31.192C193.271 34.056 194.692 35.7359 197.521 35.8747C198.34 35.9151 199.158 35.9599 199.756 35.9912C200.896 35.9912 201.815 35.9808 202.735 35.9957C203.182 36.0032 203.407 35.8508 203.463 35.37C203.61 34.0874 203.792 32.8092 203.985 31.531C204.054 31.0711 203.892 30.8889 203.439 30.8859Z" fill="#236924"/>
<path d="M86.7794 10.0272C83.8503 10.0779 80.9123 9.86291 77.9921 10.2078C76.1821 10.4214 74.7885 11.3516 73.9409 13.0121C73.553 13.7721 73.359 14.5919 73.2068 15.4236C72.6965 18.2323 72.3577 21.0679 71.9608 23.8931C71.4192 27.7515 70.8745 31.6085 70.312 35.4639C70.2508 35.885 70.3777 35.9865 70.7641 35.9835C72.3786 35.9716 73.9931 35.9701 75.6092 35.985C76.0016 35.988 76.1598 35.8805 76.2165 35.4564C76.5865 32.6776 76.9924 29.9032 77.3863 27.1273C77.8459 23.8841 78.2921 20.6394 78.771 17.3991C78.9874 15.9373 79.5887 15.343 81.051 15.1996C81.9359 15.113 82.8357 15.1832 83.7295 15.1832C83.7295 15.1623 83.7295 15.1414 83.7295 15.1205C84.4502 15.1205 85.1724 15.0891 85.8901 15.1309C86.3736 15.1593 86.5392 14.9577 86.5959 14.5172C86.769 13.1883 86.9585 11.8623 87.1629 10.5378C87.2151 10.1974 87.1704 10.0182 86.7779 10.0257L86.7794 10.0272Z" fill="#4CBF42"/>
<path d="M137.732 37.6979C135.309 37.0275 132.454 38.6506 131.79 41.077C131.398 42.509 131.912 43.9365 133.133 44.6383C134.637 45.5044 136.152 45.3237 137.605 44.5129C139.057 43.7021 139.972 42.5001 140.051 41.2532C140.064 39.2538 139.194 38.1026 137.733 37.6979H137.732Z" fill="#236924"/>
<path d="M121.814 37.9204C119.619 37.9309 117.622 39.3957 117.046 41.422C116.526 43.2526 117.549 44.9863 119.403 45.4103C121.408 45.8687 123.633 44.9161 124.724 43.1048C125.407 41.9685 125.597 40.7665 124.941 39.5614C124.277 38.3385 123.139 37.9264 121.814 37.9204Z" fill="#236924"/>
<path d="M33.7989 12.6969L33.6512 12.4102C33.6303 12.5416 33.4736 12.7446 33.7989 12.6969Z" fill="#41A338"/>
<path d="M57.033 27.547C56.7868 27.4947 56.6197 27.6246 56.4556 27.7665C56.6063 27.7411 56.7585 27.7142 56.654 27.9561C56.8256 27.868 56.9778 27.762 57.033 27.547Z" fill="#41A338"/>
</svg>
